<?xml version="1.0" encoding="UTF-8" standalone="no"?>
<!-- Created with Inkscape (http://www.inkscape.org/) -->

<svg
   xmlns:dc="http://purl.org/dc/elements/1.1/"
   xmlns:cc="http://creativecommons.org/ns#"
   xmlns:rdf="http://www.w3.org/1999/02/22-rdf-syntax-ns#"
   xmlns:svg="http://www.w3.org/2000/svg"
   xmlns="http://www.w3.org/2000/svg"
   xmlns:sodipodi="http://sodipodi.sourceforge.net/DTD/sodipodi-0.dtd"
   xmlns:inkscape="http://www.inkscape.org/namespaces/inkscape"
   id="svg2"
   version="1.1"
   inkscape:version="0.91 r13725"
   width="100"
   height="100"
   viewBox="0 0 100 100"
   sodipodi:docname="was-gaffsch.svg">
  <metadata
     id="metadata8">
    <rdf:RDF>
      <cc:Work
         rdf:about="">
        <dc:format>image/svg+xml</dc:format>
        <dc:type
           rdf:resource="http://purl.org/dc/dcmitype/StillImage" />
        <dc:title></dc:title>
      </cc:Work>
    </rdf:RDF>
  </metadata>
  <defs
     id="defs6" />
  <sodipodi:namedview
     pagecolor="#ffffff"
     bordercolor="#666666"
     borderopacity="1"
     objecttolerance="10"
     gridtolerance="10"
     guidetolerance="10"
     inkscape:pageopacity="0"
     inkscape:pageshadow="2"
     inkscape:window-width="1855"
     inkscape:window-height="1056"
     id="namedview4"
     showgrid="false"
     inkscape:object-paths="true"
     inkscape:snap-global="true"
     inkscape:zoom="2.5368505"
     inkscape:cx="22.977977"
     inkscape:cy="-12.721639"
     inkscape:window-x="65"
     inkscape:window-y="24"
     inkscape:window-maximized="1"
     inkscape:current-layer="svg2"
     inkscape:object-nodes="true" />
  <g
     id="g4311"
     transform="matrix(0.16308408,0,0,0.16308408,56.784699,-31.271158)">
    <path
       style="opacity:1;fill:#0c0200;fill-opacity:1;fill-rule:evenodd;stroke:#000000;stroke-width:1px;stroke-linecap:butt;stroke-linejoin:miter;stroke-opacity:1"
       d="m -150.8722,280.67684 c -6.30703,12.62227 -14.9792,20.49786 -25.22813,31.53517 -10.24893,11.03731 -11.54183,15.86538 -16.55596,29.9584 -10.30496,28.96374 0.78838,28.38165 -0.78838,48.09113 -1.57676,19.70948 -10.88398,23.37988 -11.44145,36.48038 -0.55747,13.1005 4.63696,17.86146 5.57468,35.67797 0.55747,10.59189 -3.62355,8.64076 -2.22988,28.98835 1.0673,15.58255 -2.78733,25.08607 -1.6724,37.90783 1.11494,12.82177 11.70683,28.98835 17.28152,39.58025 5.57468,10.59189 15.60911,20.62632 -3.06608,59.37036 -18.67518,38.74404 -50.72961,91.42479 -54.91062,95.6058 -4.18101,4.18102 -14.21544,21.1838 -3.34481,8.08329 6.95429,-8.38081 11.86713,-9.73861 11.12816,-3.31518 -0.41616,3.61739 -3.9571,11.6059 -6.66841,17.53062 -7.52582,16.44531 -18.39645,34.28429 0.55747,25.08607 5.96482,-2.89469 9.07828,-7.98091 11.96838,-12.45543 6.29354,-9.74378 8.39884,-20.75896 14.51136,-29.35468 8.91949,-12.54304 20.62632,-28.15215 25.3648,-37.35038 2.39748,-4.65393 5.6886,-11.99102 6.96722,-11.83518 1.13792,0.13869 2.31555,0.50344 -2.22874,8.49038 -2.96894,5.21813 -3.95914,8.75382 -2.76649,9.30362 1.75839,0.81059 0.8435,-2.50804 4.99636,-9.30362 6.13215,-10.03443 2.50861,-16.44532 8.9195,-23.41367 6.41088,-6.96835 21.1978,-9.03204 26.21501,-18.23027 5.01722,-9.19822 1.37966,-18.84137 29.81054,-38.91022 28.43088,-20.06886 66.33872,-34.56303 66.33872,-34.56303 L -148.3031,313.57587 c 0,0 -4.38156,-4.83331 0.8362,-15.60911 1.91591,-7.89256 3.44354,-16.15966 -3.4053,-17.28992 z"
       id="path4150"
       inkscape:connector-curvature="0"
       sodipodi:nodetypes="csssssssssssssssssssssssscccc" />
    <path
       sodipodi:nodetypes="cssssscscccsssscc"
       inkscape:connector-curvature="0"
       id="path4152"
       d="m -81.32492,586.60773 c 0,0 -4.21518,-12.93912 -5.88759,-21.02241 -1.6724,-8.08329 -0.88402,-17.31533 -3.39263,-22.33254 -2.5086,-5.01721 -39.02277,-22.57746 -52.95948,-55.46809 -13.9367,-32.89062 -14.77291,-120.1344 -14.77291,-134.62857 0,-14.49418 1.99441,-51.12343 23.29594,-70.01981 21.30152,-18.89638 38.86177,-46.21232 38.86177,-46.21232 0,0 12.2643,-13.1005 20.06886,-13.65797 7.80455,-0.55747 4.73848,16.16658 4.73848,16.16658 l 98.67396,27.05342 49.66789,257.79997 c 0,0 -30.57669,53.11172 -35.87264,60.77691 -5.29595,7.66518 -51.98391,69.96226 -63.96948,80.27542 -11.98556,10.31316 -49.8934,30.38202 -65.78125,23.13493 -15.88784,-7.24709 -8.1781,-46.87762 -2.22987,-57.97669 9.78927,-18.26624 8.60263,-28.17314 -0.77296,-38.59047 3.07336,-1.9786 6.44681,-4.16912 10.33191,-5.29836 z"
       style="opacity:1;fill:#ff9365;fill-opacity:1;fill-rule:evenodd;stroke:none;stroke-width:1px;stroke-linecap:butt;stroke-linejoin:miter;stroke-opacity:1" />
    <path
       inkscape:connector-curvature="0"
       id="path4154"
       d="m -95.48857,272.20177 c 6.10994,-17.93563 5.32156,-24.04557 9.26346,-30.74679 3.9419,-6.70122 13.99373,-17.54143 17.14725,-18.32981 3.15351,-0.78838 41.1928,0.59128 58.14296,3.7448 16.95015,3.15351 61.36922,24.5482 76.97833,44.05958 15.60911,19.51139 32.89063,83.62024 37.35037,122.64301 4.45975,39.02278 1.95722,45.1743 11.41776,100.75502 9.46055,55.58073 11.03731,79.62629 13.40245,105.24862 2.36514,25.62232 1.97095,33.9003 5.12446,36.65963 3.15352,2.75932 18.52691,7.09541 27.59327,13.79663 9.06636,6.70122 13.79664,9.85474 0,13.79663 -13.79663,3.9419 -24.83394,1.57676 -43.75504,5.91285 -18.9211,4.33608 -6.60267,2.36513 -10.44602,4.23753 -3.84335,1.87241 -10.05183,1.08403 -12.71261,2.85788 -2.66078,1.77385 -5.42011,9.95329 -8.08089,10.74166 -2.66078,0.78838 -0.88693,-1.57675 -2.36514,-2.75932 -1.47821,-1.18257 -7.21544,-1.92112 -13.48696,1.14495 -6.27152,3.06608 -8.78013,10.1738 -11.28873,11.56747 -2.50861,1.39367 -3.48418,-2.64797 -8.78013,-1.53304 -5.29595,1.11494 -12.96113,10.1738 -16.58468,9.33759 -3.62354,-0.8362 -3.48417,-4.73848 -1.39367,-9.19822 2.09051,-4.45975 10.31316,-14.91228 13.65797,-28.29151 3.34481,-13.37924 3.06608,-17.56025 1.95114,-21.1838 -1.11493,-3.62354 -7.24709,-2.5086 -5.01721,-24.80733 2.22987,-22.29873 5.57468,-32.61189 -3.90228,-56.30429 -9.47696,-23.6924 -9.47696,-84.45644 -3.90228,-113.44478 5.57468,-28.98835 8.91949,-62.99391 -6.68962,-108.70631 -15.60911,-45.71239 -24.68258,-54.4456 -66.46667,-65.68 -41.78409,-11.2344 -57.15749,-5.51865 -57.15749,-5.51865 z"
       style="opacity:1;fill:#0c0200;fill-opacity:1;fill-rule:evenodd;stroke:#000000;stroke-width:1px;stroke-linecap:butt;stroke-linejoin:miter;stroke-opacity:1" />
    <path
       inkscape:connector-curvature="0"
       id="path4162"
       d="m -85.85938,281.19922 c -19.40933,-0.31639 -41.59306,2.49258 -66.49804,18.74414 l 1.41992,2.17773 c 32.5746,-21.25631 59.95256,-19.0246 83.375,-17.35156 23.22937,1.65924 58.15947,9.14673 91.0957,30.18164 l 1.40039,-2.1914 c -33.40246,-21.33267 -68.71257,-28.89842 -92.31054,-30.58399 -5.85122,-0.41794 -12.01265,-0.8711 -18.48243,-0.97656 z"
       style="color:#000000;font-style:normal;font-variant:normal;font-weight:normal;font-stretch:normal;font-size:medium;line-height:normal;font-family:sans-serif;text-indent:0;text-align:start;text-decoration:none;text-decoration-line:none;text-decoration-style:solid;text-decoration-color:#000000;letter-spacing:normal;word-spacing:normal;text-transform:none;direction:ltr;block-progression:tb;writing-mode:lr-tb;baseline-shift:baseline;text-anchor:start;white-space:normal;clip-rule:nonzero;display:inline;overflow:visible;visibility:visible;opacity:1;isolation:auto;mix-blend-mode:normal;color-interpolation:sRGB;color-interpolation-filters:linearRGB;solid-color:#000000;solid-opacity:1;fill:#000000;fill-opacity:1;fill-rule:evenodd;stroke:none;stroke-width:2.5999999;stroke-linecap:butt;stroke-linejoin:miter;stroke-miterlimit:4;stroke-dasharray:none;stroke-dashoffset:0;stroke-opacity:1;color-rendering:auto;image-rendering:auto;shape-rendering:auto;text-rendering:auto;enable-background:accumulate" />
    <path
       inkscape:connector-curvature="0"
       id="path4187"
       d="m -141.3131,388.58623 c 0,0 8.67217,-7.14468 17.59071,-6.84904 8.91854,0.29564 16.35886,8.52435 16.35886,8.52435 0,0 -7.34178,5.12446 -17.19651,4.38536 -9.85474,-0.73911 -16.75306,-6.06067 -16.75306,-6.06067 z"
       style="opacity:1;fill:#fbfdf7;fill-opacity:1;fill-rule:evenodd;stroke:#000000;stroke-width:1px;stroke-linecap:butt;stroke-linejoin:miter;stroke-opacity:1" />
    <path
       sodipodi:nodetypes="cssc"
       inkscape:connector-curvature="0"
       id="path4189"
       d="m -127.51222,382.02478 c -3.55195,4.09777 -1.9752,8.63095 -0.8419,9.81352 1.13329,1.18257 4.38536,3.59698 8.32726,1.47821 3.94189,-2.11877 3.88096,-7.64103 2.72886,-10.07828 0,0 -2.03903,-1.2054 -5.14328,-1.59959 -3.10424,-0.39419 -5.07094,0.38614 -5.07094,0.38614 z"
       style="opacity:1;fill:#88cedc;fill-opacity:1;fill-rule:evenodd;stroke:#000000;stroke-width:1px;stroke-linecap:butt;stroke-linejoin:miter;stroke-opacity:1" />
    <circle
       r="2.9564216"
       cy="387.40366"
       cx="-123.18039"
       id="path4193"
       style="opacity:1;fill:#0c0200;fill-opacity:1;fill-rule:nonzero;stroke:none;stroke-width:2.5999999;stroke-linecap:butt;stroke-linejoin:round;stroke-miterlimit:4;stroke-dasharray:none;stroke-dashoffset:0;stroke-opacity:1" />
    <ellipse
       cx="-333.94171"
       cy="227.19556"
       rx="2.6084876"
       ry="1.3932309"
       transform="matrix(0.7834939,-0.62139948,0.62139948,0.7834939,0,0)"
       id="path4195"
       style="opacity:1;fill:#fafdf8;fill-opacity:1;fill-rule:nonzero;stroke:none;stroke-width:2.5999999;stroke-linecap:butt;stroke-linejoin:round;stroke-miterlimit:4;stroke-dasharray:none;stroke-dashoffset:0;stroke-opacity:1" />
    <path
       sodipodi:nodetypes="cscsc"
       inkscape:connector-curvature="0"
       id="path4185"
       d="m -64.89191,389.1825 c 0,0 7.37033,-8.79713 21.67157,-8.64076 12.37814,0.13535 18.25709,8.57108 18.25709,8.57108 0,0 -5.1862,4.93188 -19.72044,5.43531 -12.84087,0.44478 -20.20822,-5.36563 -20.20822,-5.36563 z"
       style="opacity:1;fill:#fbfdf7;fill-opacity:1;fill-rule:evenodd;stroke:#000000;stroke-width:1px;stroke-linecap:butt;stroke-linejoin:miter;stroke-opacity:1" />
    <path
       style="opacity:1;fill:#88cedc;fill-opacity:1;fill-rule:evenodd;stroke:#000000;stroke-width:1.09092402px;stroke-linecap:butt;stroke-linejoin:miter;stroke-opacity:1"
       d="m -46.40398,380.60907 c -3.87491,4.47035 -2.1548,9.41571 -0.91845,10.7058 1.23633,1.2901 4.78409,3.92403 9.08441,1.61262 4.3003,-2.31142 4.23383,-8.33579 2.97697,-10.99464 0,0 -1.84116,-0.70527 -5.22766,-1.1353 -3.38649,-0.43003 -5.91527,-0.18848 -5.91527,-0.18848 z"
       id="path4204"
       inkscape:connector-curvature="0"
       sodipodi:nodetypes="csscsc" />
    <circle
       style="opacity:1;fill:#0c0200;fill-opacity:1;fill-rule:nonzero;stroke:none;stroke-width:2.5999999;stroke-linecap:butt;stroke-linejoin:round;stroke-miterlimit:4;stroke-dasharray:none;stroke-dashoffset:0;stroke-opacity:1"
       id="circle4206"
       cx="-41.678284"
       cy="386.47702"
       r="3.2252314" />
    <ellipse
       style="opacity:1;fill:#fafdf8;fill-opacity:1;fill-rule:nonzero;stroke:none;stroke-width:2.5999999;stroke-linecap:butt;stroke-linejoin:round;stroke-miterlimit:4;stroke-dasharray:none;stroke-dashoffset:0;stroke-opacity:1"
       id="ellipse4208"
       transform="matrix(0.7834939,-0.62139948,0.62139948,0.7834939,0,0)"
       ry="1.519909"
       rx="2.8456616"
       cy="277.13412"
       cx="-269.20929" />
    <path
       inkscape:connector-curvature="0"
       id="path4248"
       d="m -107.60792,377.12725 c 4.87785,5.57468 6.68962,11.8462 6.41089,21.18379 -0.27874,9.33759 -2.22988,19.65076 -2.22988,19.65076"
       style="opacity:1;fill:none;fill-rule:evenodd;stroke:#000000;stroke-width:1px;stroke-linecap:butt;stroke-linejoin:miter;stroke-opacity:1" />
    <path
       inkscape:connector-curvature="0"
       id="path4250"
       d="m -141.61348,380.19332 c 9.75569,-7.80455 23.32263,-8.22083 38.55916,4.39098"
       style="opacity:1;fill:none;fill-rule:evenodd;stroke:#000000;stroke-width:1px;stroke-linecap:butt;stroke-linejoin:miter;stroke-opacity:1" />
    <path
       inkscape:connector-curvature="0"
       id="path4252"
       d="m -138.1293,401.51648 c 13.79734,2.78735 25.3648,0.55747 31.63632,-5.99278"
       style="opacity:1;fill:none;fill-rule:evenodd;stroke:#000000;stroke-width:1px;stroke-linecap:butt;stroke-linejoin:miter;stroke-opacity:1" />
    <path
       inkscape:connector-curvature="0"
       id="path4254"
       d="m -70.81502,378.10282 c -10.73126,8.36202 -10.45252,17.14215 -10.87063,24.1105"
       style="opacity:1;fill:none;fill-rule:evenodd;stroke:#000000;stroke-width:1px;stroke-linecap:butt;stroke-linejoin:miter;stroke-opacity:1" />
    <path
       inkscape:connector-curvature="0"
       id="path4256"
       d="m -61.89552,376.70915 c 11.4281,-6.82899 30.66075,-5.43532 44.31872,1.95114"
       style="opacity:1;fill:none;fill-rule:evenodd;stroke:#000000;stroke-width:1px;stroke-linecap:butt;stroke-linejoin:miter;stroke-opacity:1" />
    <path
       inkscape:connector-curvature="0"
       id="path4258"
       d="m -53.81223,403.18889 c 15.74847,1.11494 22.85619,-1.2543 26.201,-2.78734"
       style="opacity:1;fill:none;fill-rule:evenodd;stroke:#000000;stroke-width:1px;stroke-linecap:butt;stroke-linejoin:miter;stroke-opacity:1" />
    <path
       inkscape:connector-curvature="0"
       id="path4260"
       d="m -111.78893,446.81078 c -2.50861,4.32038 -0.27873,7.80455 1.11494,8.91949 1.39367,1.11493 4.45974,1.53304 6.82898,2.64797 2.36924,1.11494 3.06608,4.59912 5.43532,4.73848 2.36924,0.13937 5.99278,1.11494 9.33759,0 3.34481,-1.11493 7.52582,-4.32038 10.5919,-5.57468 3.06607,-1.2543 7.38645,0.55747 11.14936,-2.50861 3.76291,-3.06607 -2.0905,-13.5186 -2.0905,-13.5186"
       style="opacity:1;fill:none;fill-rule:evenodd;stroke:#000000;stroke-width:1px;stroke-linecap:butt;stroke-linejoin:miter;stroke-opacity:1" />
    <path
       inkscape:connector-curvature="0"
       id="path4262"
       d="m -88.09653,506.59924 c 4.04164,-1.88145 17.28152,0.20905 17.28152,0.20905"
       style="opacity:1;fill:none;fill-rule:evenodd;stroke:#000000;stroke-width:1px;stroke-linecap:butt;stroke-linejoin:miter;stroke-opacity:1" />
    <path
       inkscape:connector-curvature="0"
       id="path4264"
       d="m -100.63956,525.55316 c 6.61993,7.10772 12.12493,8.43171 21.32315,8.08329 9.19823,-0.34842 19.51139,-3.55386 22.64715,-16.79373"
       style="opacity:1;fill:none;fill-rule:evenodd;stroke:#000000;stroke-width:1px;stroke-linecap:butt;stroke-linejoin:miter;stroke-opacity:1" />
    <path
       inkscape:connector-curvature="0"
       id="path4277"
       d="m -113.62128,481.51642 c 3.84334,-3.05497 8.08088,-1.8724 11.43149,-2.46368 3.35061,-0.59129 5.02592,-1.08402 8.96782,-1.37967 3.94189,-0.29564 1.37966,1.8724 4.33608,1.97095 2.95642,0.0985 1.67531,-1.6753 5.02592,-1.6753 3.35061,0 5.81429,2.66078 11.2344,3.25206 5.42011,0.59128 16.26032,-0.29564 16.26032,-0.29564 0,0 -10.24893,3.15351 -14.48647,6.99686 -4.23754,3.84335 -11.82568,7.6867 -20.10366,7.58815 -8.27799,-0.0985 -9.46055,-4.04044 -11.33295,-6.40558 -1.87241,-2.36514 -10.74167,-4.23754 -11.33295,-7.58815 z"
       style="opacity:1;fill:#fe250f;fill-opacity:1;fill-rule:evenodd;stroke:#000000;stroke-width:1px;stroke-linecap:butt;stroke-linejoin:miter;stroke-opacity:1" />
    <path
       sodipodi:nodetypes="csc"
       inkscape:connector-curvature="0"
       id="path4279"
       d="m -113.62128,481.51642 c 10.54457,0.49274 13.99015,2.78186 21.97606,2.95642 18.03417,0.3942 35.27997,-3.5477 35.27997,-3.5477"
       style="opacity:1;fill:none;fill-rule:evenodd;stroke:#000000;stroke-width:1px;stroke-linecap:butt;stroke-linejoin:miter;stroke-opacity:1" />
    <path
       sodipodi:nodetypes="ccccsc"
       inkscape:connector-curvature="0"
       id="path4290"
       d="m -91.74376,227.06706 c -33.90031,16.55596 -54.61564,44.57831 -59.12844,53.60978 -0.5647,9.76456 0.48423,18.00564 3.4053,17.28992 12.82178,-26.47974 46.82733,-24.80733 46.82733,-24.80733 0,0 9.52487,-30.98993 9.7557,-32.89063 1.03995,-8.56336 -0.85989,-13.20174 -0.85989,-13.20174 z"
       style="opacity:1;fill:#0c0200;fill-opacity:1;fill-rule:evenodd;stroke:#000000;stroke-width:1px;stroke-linecap:butt;stroke-linejoin:miter;stroke-opacity:1" />
  </g>
</svg>
