<?xml version="1.0" encoding="UTF-8" standalone="no"?>
<!-- Created with Inkscape (http://www.inkscape.org/) -->

<svg
   xmlns:dc="http://purl.org/dc/elements/1.1/"
   xmlns:cc="http://creativecommons.org/ns#"
   xmlns:rdf="http://www.w3.org/1999/02/22-rdf-syntax-ns#"
   xmlns:svg="http://www.w3.org/2000/svg"
   xmlns="http://www.w3.org/2000/svg"
   xmlns:sodipodi="http://sodipodi.sourceforge.net/DTD/sodipodi-0.dtd"
   xmlns:inkscape="http://www.inkscape.org/namespaces/inkscape"
   id="svg2"
   version="1.1"
   inkscape:version="0.92.5 (2060ec1f9f, 2020-04-08)"
   width="100"
   height="100"
   viewBox="0 0 100 100"
   sodipodi:docname="was-gaffsch-smil.svg">
  <metadata
     id="metadata8">
    <rdf:RDF>
      <cc:Work
         rdf:about="">
        <dc:format>image/svg+xml</dc:format>
        <dc:type
           rdf:resource="http://purl.org/dc/dcmitype/StillImage" />
        <dc:title />
      </cc:Work>
    </rdf:RDF>
  </metadata>
  <defs
     id="defs6" />
  <sodipodi:namedview
     pagecolor="#ffffff"
     bordercolor="#666666"
     borderopacity="1"
     objecttolerance="10"
     gridtolerance="10"
     guidetolerance="10"
     inkscape:pageopacity="0"
     inkscape:pageshadow="2"
     inkscape:window-width="1848"
     inkscape:window-height="1016"
     id="namedview4"
     showgrid="false"
     inkscape:object-paths="true"
     inkscape:snap-global="false"
     inkscape:zoom="3.5876484"
     inkscape:cx="-7.1985984"
     inkscape:cy="66.24523"
     inkscape:window-x="419"
     inkscape:window-y="1467"
     inkscape:window-maximized="1"
     inkscape:current-layer="g4311"
     inkscape:object-nodes="true" />
  <g
     id="g4311"
     transform="matrix(0.16308408,0,0,0.16308408,56.784699,-31.271158)">
    <animate id="svggroup" dur="120s" attributeName="opacity" from="1" to="1" />
    <path
       style="opacity:1;fill:#0c0200;fill-opacity:1;fill-rule:evenodd;stroke:#000000;stroke-width:1px;stroke-linecap:butt;stroke-linejoin:miter;stroke-opacity:1"
       d="m -150.8722,280.67684 c -6.30703,12.62227 -14.9792,20.49786 -25.22813,31.53517 -10.24893,11.03731 -11.54183,15.86538 -16.55596,29.9584 -10.30496,28.96374 0.78838,28.38165 -0.78838,48.09113 -1.57676,19.70948 -10.88398,23.37988 -11.44145,36.48038 -0.55747,13.1005 4.63696,17.86146 5.57468,35.67797 0.55747,10.59189 -3.62355,8.64076 -2.22988,28.98835 1.0673,15.58255 -2.78733,25.08607 -1.6724,37.90783 1.11494,12.82177 11.70683,28.98835 17.28152,39.58025 5.57468,10.59189 15.60911,20.62632 -3.06608,59.37036 -18.67518,38.74404 -50.72961,91.42479 -54.91062,95.6058 -4.18101,4.18102 -14.21544,21.1838 -3.34481,8.08329 6.95429,-8.38081 11.86713,-9.73861 11.12816,-3.31518 -0.41616,3.61739 -3.9571,11.6059 -6.66841,17.53062 -7.52582,16.44531 -18.39645,34.28429 0.55747,25.08607 5.96482,-2.89469 9.07828,-7.98091 11.96838,-12.45543 6.29354,-9.74378 8.39884,-20.75896 14.51136,-29.35468 8.91949,-12.54304 20.62632,-28.15215 25.3648,-37.35038 2.39748,-4.65393 5.6886,-11.99102 6.96722,-11.83518 1.13792,0.13869 2.31555,0.50344 -2.22874,8.49038 -2.96894,5.21813 -3.95914,8.75382 -2.76649,9.30362 1.75839,0.81059 0.8435,-2.50804 4.99636,-9.30362 6.13215,-10.03443 2.50861,-16.44532 8.9195,-23.41367 6.41088,-6.96835 21.1978,-9.03204 26.21501,-18.23027 5.01722,-9.19822 1.37966,-18.84137 29.81054,-38.91022 28.43088,-20.06886 66.33872,-34.56303 66.33872,-34.56303 L -148.3031,313.57587 c 0,0 -4.38156,-4.83331 0.8362,-15.60911 1.91591,-7.89256 3.44354,-16.15966 -3.4053,-17.28992 z"
       id="path4150"
       inkscape:connector-curvature="0"
       sodipodi:nodetypes="csssssssssssssssssssssssscccc" />
    <path
       sodipodi:nodetypes="cssssscscccsssscc"
       inkscape:connector-curvature="0"
       id="path4152"
       d="m -81.32492,586.60773 c 0,0 -4.21518,-12.93912 -5.88759,-21.02241 -1.6724,-8.08329 -0.88402,-17.31533 -3.39263,-22.33254 -2.5086,-5.01721 -39.02277,-22.57746 -52.95948,-55.46809 -13.9367,-32.89062 -14.77291,-120.1344 -14.77291,-134.62857 0,-14.49418 1.99441,-51.12343 23.29594,-70.01981 21.30152,-18.89638 38.86177,-46.21232 38.86177,-46.21232 0,0 12.2643,-13.1005 20.06886,-13.65797 7.80455,-0.55747 4.73848,16.16658 4.73848,16.16658 l 98.67396,27.05342 49.66789,257.79997 c 0,0 -30.57669,53.11172 -35.87264,60.77691 -5.29595,7.66518 -51.98391,69.96226 -63.96948,80.27542 -11.98556,10.31316 -49.8934,30.38202 -65.78125,23.13493 -15.88784,-7.24709 -8.1781,-46.87762 -2.22987,-57.97669 9.78927,-18.26624 8.60263,-28.17314 -0.77296,-38.59047 3.07336,-1.9786 6.44681,-4.16912 10.33191,-5.29836 z"
       style="opacity:1;fill:#ff9365;fill-opacity:1;fill-rule:evenodd;stroke:none;stroke-width:1px;stroke-linecap:butt;stroke-linejoin:miter;stroke-opacity:1" />
    <path
       inkscape:connector-curvature="0"
       id="path4154"
       d="m -95.48857,272.20177 c 6.10994,-17.93563 5.32156,-24.04557 9.26346,-30.74679 3.9419,-6.70122 13.99373,-17.54143 17.14725,-18.32981 3.15351,-0.78838 41.1928,0.59128 58.14296,3.7448 16.95015,3.15351 61.36922,24.5482 76.97833,44.05958 15.60911,19.51139 32.89063,83.62024 37.35037,122.64301 4.45975,39.02278 1.95722,45.1743 11.41776,100.75502 9.46055,55.58073 11.03731,79.62629 13.40245,105.24862 2.36514,25.62232 1.97095,33.9003 5.12446,36.65963 3.15352,2.75932 18.52691,7.09541 27.59327,13.79663 9.06636,6.70122 13.79664,9.85474 0,13.79663 -13.79663,3.9419 -24.83394,1.57676 -43.75504,5.91285 -18.9211,4.33608 -6.60267,2.36513 -10.44602,4.23753 -3.84335,1.87241 -10.05183,1.08403 -12.71261,2.85788 -2.66078,1.77385 -5.42011,9.95329 -8.08089,10.74166 -2.66078,0.78838 -0.88693,-1.57675 -2.36514,-2.75932 -1.47821,-1.18257 -7.21544,-1.92112 -13.48696,1.14495 -6.27152,3.06608 -8.78013,10.1738 -11.28873,11.56747 -2.50861,1.39367 -3.48418,-2.64797 -8.78013,-1.53304 -5.29595,1.11494 -12.96113,10.1738 -16.58468,9.33759 -3.62354,-0.8362 -3.48417,-4.73848 -1.39367,-9.19822 2.09051,-4.45975 10.31316,-14.91228 13.65797,-28.29151 3.34481,-13.37924 3.06608,-17.56025 1.95114,-21.1838 -1.11493,-3.62354 -7.24709,-2.5086 -5.01721,-24.80733 2.22987,-22.29873 5.57468,-32.61189 -3.90228,-56.30429 -9.47696,-23.6924 -9.47696,-84.45644 -3.90228,-113.44478 5.57468,-28.98835 8.91949,-62.99391 -6.68962,-108.70631 -15.60911,-45.71239 -24.68258,-54.4456 -66.46667,-65.68 -41.78409,-11.2344 -57.15749,-5.51865 -57.15749,-5.51865 z"
       style="opacity:1;fill:#0c0200;fill-opacity:1;fill-rule:evenodd;stroke:#000000;stroke-width:1px;stroke-linecap:butt;stroke-linejoin:miter;stroke-opacity:1" />
    <path
       inkscape:connector-curvature="0"
       id="path4162"
       d="m -85.85938,281.19922 c -19.40933,-0.31639 -41.59306,2.49258 -66.49804,18.74414 l 1.41992,2.17773 c 32.5746,-21.25631 59.95256,-19.0246 83.375,-17.35156 23.22937,1.65924 58.15947,9.14673 91.0957,30.18164 l 1.40039,-2.1914 c -33.40246,-21.33267 -68.71257,-28.89842 -92.31054,-30.58399 -5.85122,-0.41794 -12.01265,-0.8711 -18.48243,-0.97656 z"
       style="color:#000000;font-style:normal;font-variant:normal;font-weight:normal;font-stretch:normal;font-size:medium;line-height:normal;font-family:sans-serif;text-indent:0;text-align:start;text-decoration:none;text-decoration-line:none;text-decoration-style:solid;text-decoration-color:#000000;letter-spacing:normal;word-spacing:normal;text-transform:none;direction:ltr;block-progression:tb;writing-mode:lr-tb;baseline-shift:baseline;text-anchor:start;white-space:normal;clip-rule:nonzero;display:inline;overflow:visible;visibility:visible;opacity:1;isolation:auto;mix-blend-mode:normal;color-interpolation:sRGB;color-interpolation-filters:linearRGB;solid-color:#000000;solid-opacity:1;fill:#000000;fill-opacity:1;fill-rule:evenodd;stroke:none;stroke-width:2.5999999;stroke-linecap:butt;stroke-linejoin:miter;stroke-miterlimit:4;stroke-dasharray:none;stroke-dashoffset:0;stroke-opacity:1;color-rendering:auto;image-rendering:auto;shape-rendering:auto;text-rendering:auto;enable-background:accumulate" />
    <path
       inkscape:connector-curvature="0"
       id="rLid"
       d="m -141.3131,388.58623 c 0,0 8.67217,-7.14468 17.59071,-6.84904 8.91854,0.29564 16.35886,8.52435 16.35886,8.52435 0,0 -7.34178,5.12446 -17.19651,4.38536 -9.85474,-0.73911 -16.75306,-6.06067 -16.75306,-6.06067 z"
       style="opacity:1;fill:#fbfdf7;fill-opacity:1;fill-rule:evenodd;stroke:#000000;stroke-width:1px;stroke-linecap:butt;stroke-linejoin:miter;stroke-opacity:1">
       <animate
         id="rLidOpen"
         attributeName="d"
         from="m -141.3131,388.58623 c 0,0 8.67217,-7.14468 17.59071,-6.84904 8.91854,0.29564 16.35886,8.52435 16.35886,8.52435 0,0 -7.34178,5.12446 -17.19651,4.38536 -9.85474,-0.73911 -16.75306,-6.06067 -16.75306,-6.06067 z"
         to="m -141.3131,388.58623 c 0,0 -0.94614,-16.90103 18.55211,-16.78344 12.23049,0.0738 15.39746,18.45875 15.39746,18.45875 0,0 -9.15774,14.7384 -19.01247,13.9993 -9.85474,-0.73911 -14.9371,-15.67461 -14.9371,-15.67461 z"
         begin="svggroup.end"
         dur="60s"
         repeatCount="1"
         fill="freeze" />
       <animate
         id="rLidClose"
         attributeName="d"
         from="m -141.3131,388.58623 c 0,0 -0.94614,-16.90103 18.55211,-16.78344 12.23049,0.0738 15.39746,18.45875 15.39746,18.45875 0,0 -9.15774,14.7384 -19.01247,13.9993 -9.85474,-0.73911 -14.9371,-15.67461 -14.9371,-15.67461 z"
         to="m -141.3131,388.58623 c 0,0 8.13806,1.50786 17.0566,1.8035 8.91854,0.29564 16.89297,-0.12819 16.89297,-0.12819 0,0 -6.70085,1.59935 -16.55558,0.86025 -9.85474,-0.73911 -17.39399,-2.53556 -17.39399,-2.53556 z"
         begin="rLidOpen.end+3s"
         dur="0.1s"
         repeatCount="1"
         fill="freeze" />
       <animate
         attributeName="d"
         from="m -141.3131,388.58623 c 0,0 8.13806,1.50786 17.0566,1.8035 8.91854,0.29564 16.89297,-0.12819 16.89297,-0.12819 0,0 -6.70085,1.59935 -16.55558,0.86025 -9.85474,-0.73911 -17.39399,-2.53556 -17.39399,-2.53556 z"
         to="m -141.3131,388.58623 c 0,0 8.67217,-7.14468 17.59071,-6.84904 8.91854,0.29564 16.35886,8.52435 16.35886,8.52435 0,0 -7.34178,5.12446 -17.19651,4.38536 -9.85474,-0.73911 -16.75306,-6.06067 -16.75306,-6.06067 z"
         begin="rLidClose.end"
         dur="0.05s"
         repeatCount="1"
         fill="freeze" />
    </path>
    <path
       sodipodi:nodetypes="cssc"
       inkscape:connector-curvature="0"
       id="rIris"
       d="m -127.51222,382.02478 c -3.55195,4.09777 -1.9752,8.63095 -0.8419,9.81352 1.13329,1.18257 4.38536,3.59698 8.32726,1.47821 3.94189,-2.11877 3.88096,-7.64103 2.72886,-10.07828 0,0 -2.03903,-1.2054 -5.14328,-1.59959 -3.10424,-0.39419 -5.07094,0.38614 -5.07094,0.38614 z"
       style="opacity:1;fill:#88cedc;fill-opacity:1;fill-rule:evenodd;stroke:#000000;stroke-width:1px;stroke-linecap:butt;stroke-linejoin:miter;stroke-opacity:1">
       <animate
         attributeName="d"
         from="m -127.51222,382.02478 c -3.55195,4.09777 -1.9752,8.63095 -0.8419,9.81352 1.13329,1.18257 4.38536,3.59698 8.32726,1.47821 3.94189,-2.11877 3.88096,-7.64103 2.72886,-10.07828 0,0 -2.03903,-1.2054 -5.14328,-1.59959 -3.10424,-0.39419 -5.07094,0.38614 -5.07094,0.38614 z"
         to="m -127.51222,382.02478 c -3.55195,4.09777 -1.9752,8.63095 -0.8419,9.81352 1.13329,1.18257 4.38536,3.59698 8.32726,1.47821 3.94189,-2.11877 3.88096,-7.64103 2.72886,-10.07828 0,0 -1.71857,-2.27361 -4.82282,-2.6678 -3.10424,-0.39419 -5.3914,1.45435 -5.3914,1.45435 z"
         begin="svggroup.end"
         dur="3s"
         repeatCount="1"
         fill="freeze" />
       <animate
         attributeName="d"
         from="m -127.51222,382.02478 c -3.55195,4.09777 -1.9752,8.63095 -0.8419,9.81352 1.13329,1.18257 4.38536,3.59698 8.32726,1.47821 3.94189,-2.11877 3.88096,-7.64103 2.72886,-10.07828 0,0 -1.71857,-2.27361 -4.82282,-2.6678 -3.10424,-0.39419 -5.3914,1.45435 -5.3914,1.45435 z"
         to="m -127.51222,382.02478 c -3.55195,4.09777 -1.9752,8.63095 -0.8419,9.81352 1.13329,1.18257 4.38536,3.59698 8.32726,1.47821 3.94189,-2.11877 3.88096,-7.64103 2.72886,-10.07828 0,0 -2.03903,-1.2054 -5.14328,-1.59959 -3.10424,-0.39419 -5.07094,0.38614 -5.07094,0.38614 z"
         begin="rLidOpen.end+3s"
         dur="0.1"
         repeatCount="1"
         fill="freeze" />
    </path>
    <circle
       r="2.9564216"
       cy="387.40366"
       cx="-123.18039"
       id="path4193"
       style="opacity:1;fill:#0c0200;fill-opacity:1;fill-rule:nonzero;stroke:none;stroke-width:2.5999999;stroke-linecap:butt;stroke-linejoin:round;stroke-miterlimit:4;stroke-dasharray:none;stroke-dashoffset:0;stroke-opacity:1" />
    <ellipse
       cx="-333.94171"
       cy="227.19556"
       rx="2.6084876"
       ry="1.3932309"
       transform="matrix(0.7834939,-0.62139948,0.62139948,0.7834939,0,0)"
       id="path4195"
       style="opacity:1;fill:#fafdf8;fill-opacity:1;fill-rule:nonzero;stroke:none;stroke-width:2.5999999;stroke-linecap:butt;stroke-linejoin:round;stroke-miterlimit:4;stroke-dasharray:none;stroke-dashoffset:0;stroke-opacity:1" />
    <path
       sodipodi:nodetypes="cscsc"
       inkscape:connector-curvature="0"
       id="lLid"
       d="m -64.89191,389.1825 c 0,0 7.37033,-8.79713 21.67157,-8.64076 12.37814,0.13535 18.25709,8.57108 18.25709,8.57108 0,0 -5.1862,4.93188 -19.72044,5.43531 -12.84087,0.44478 -20.20822,-5.36563 -20.20822,-5.36563 z"
       style="opacity:1;fill:#fbfdf7;fill-opacity:1;fill-rule:evenodd;stroke:#000000;stroke-width:1px;stroke-linecap:butt;stroke-linejoin:miter;stroke-opacity:1">
       <animate
         attributeName="d"
         from="m -64.89191,389.1825 c 0,0 7.37033,-8.79713 21.67157,-8.64076 12.37814,0.13535 18.25709,8.57108 18.25709,8.57108 0,0 -5.1862,4.93188 -19.72044,5.43531 -12.84087,0.44478 -20.20822,-5.36563 -20.20822,-5.36563 z"
         to="m -64.89191,389.1825 c 0,0 6.653867,-21.36579 20.955107,-21.20942 12.37814,0.13535 18.973553,21.13974 18.973553,21.13974 0,0 -3.325988,14.56138 -17.860228,15.06481 -12.84087,0.44478 -22.068432,-14.99513 -22.068432,-14.99513 z"
         begin="svggroup.end"
         dur="60s"
         repeatCount="1"
         fill="freeze" />
       <animate
         attributeName="d"
         from="m -64.89191,389.1825 c 0,0 6.653867,-21.36579 20.955107,-21.20942 12.37814,0.13535 18.973553,21.13974 18.973553,21.13974 0,0 -3.325988,14.56138 -17.860228,15.06481 -12.84087,0.44478 -22.068432,-14.99513 -22.068432,-14.99513 z"
         to="m -64.89191,389.1825 c 0,0 6.836223,1.99184 21.137463,2.14821 12.37814,0.13535 18.791197,-2.21789 18.791197,-2.21789 0,0 -4.545271,2.26134 -19.079511,2.76477 -12.84087,0.44478 -20.849149,-2.69509 -20.849149,-2.69509 z"
         begin="rLidOpen.end+3s"
         dur="0.1s"
         repeatCount="1"
         fill="freeze" />
       <animate
         attributeName="d"
         from="m -64.89191,389.1825 c 0,0 6.836223,1.99184 21.137463,2.14821 12.37814,0.13535 18.791197,-2.21789 18.791197,-2.21789 0,0 -4.545271,2.26134 -19.079511,2.76477 -12.84087,0.44478 -20.849149,-2.69509 -20.849149,-2.69509 z"
         to="m -64.89191,389.1825 c 0,0 7.37033,-8.79713 21.67157,-8.64076 12.37814,0.13535 18.25709,8.57108 18.25709,8.57108 0,0 -5.1862,4.93188 -19.72044,5.43531 -12.84087,0.44478 -20.20822,-5.36563 -20.20822,-5.36563 z"
         begin="rLidClose.end"
         dur="0.05s"
         repeatCount="1"
         fill="freeze" />
    </path>
    <path
       style="opacity:1;fill:#88cedc;fill-opacity:1;fill-rule:evenodd;stroke:#000000;stroke-width:1.09092402px;stroke-linecap:butt;stroke-linejoin:miter;stroke-opacity:1"
       d="m -46.40398,380.60907 c -3.87491,4.47035 -2.1548,9.41571 -0.91845,10.7058 1.23633,1.2901 4.78409,3.92403 9.08441,1.61262 4.3003,-2.31142 4.23383,-8.33579 2.97697,-10.99464 0,0 -1.84116,-0.70527 -5.22766,-1.1353 -3.38649,-0.43003 -5.91527,-0.18848 -5.91527,-0.18848 z"
       id="lIris"
       inkscape:connector-curvature="0"
       sodipodi:nodetypes="csscsc">
       <animate
         attributeName="d"
         from="m -46.40398,380.60907 c -3.87491,4.47035 -2.1548,9.41571 -0.91845,10.7058 1.23633,1.2901 4.78409,3.92403 9.08441,1.61262 4.3003,-2.31142 4.23383,-8.33579 2.97697,-10.99464 0,0 -1.84116,-0.70527 -5.22766,-1.1353 -3.38649,-0.43003 -5.91527,-0.18848 -5.91527,-0.18848 z"
         to="m -46.40398,380.60907 c -3.87491,4.47035 -2.1548,9.41571 -0.91845,10.7058 1.23633,1.2901 4.78409,3.92403 9.08441,1.61262 4.3003,-2.31142 4.23383,-8.33579 2.97697,-10.99464 0,0 -1.734339,-2.30759 -5.120839,-2.73762 -3.38649,-0.43003 -6.022091,1.41384 -6.022091,1.41384 z"
         begin="svggroup.end"
         dur="2s"
         repeatCount="1"
         fill="freeze" />
       <animate
         attributeName="d"
         from="m -46.40398,380.60907 c -3.87491,4.47035 -2.1548,9.41571 -0.91845,10.7058 1.23633,1.2901 4.78409,3.92403 9.08441,1.61262 4.3003,-2.31142 4.23383,-8.33579 2.97697,-10.99464 0,0 -1.734339,-2.30759 -5.120839,-2.73762 -3.38649,-0.43003 -6.022091,1.41384 -6.022091,1.41384 z"
         to="m -46.40398,380.60907 c -3.87491,4.47035 -2.1548,9.41571 -0.91845,10.7058 1.23633,1.2901 4.78409,3.92403 9.08441,1.61262 4.3003,-2.31142 4.23383,-8.33579 2.97697,-10.99464 0,0 -1.84116,-0.70527 -5.22766,-1.1353 -3.38649,-0.43003 -5.91527,-0.18848 -5.91527,-0.18848 z"
         begin="rLidOpen.end+3s"
         dur="0.1s"
         repeatCount="1"
         fill="freeze" />
    </path>
    <circle
       style="opacity:1;fill:#0c0200;fill-opacity:1;fill-rule:nonzero;stroke:none;stroke-width:2.5999999;stroke-linecap:butt;stroke-linejoin:round;stroke-miterlimit:4;stroke-dasharray:none;stroke-dashoffset:0;stroke-opacity:1"
       id="circle4206"
       cx="-41.678284"
       cy="386.47702"
       r="3.2252314" />
    <ellipse
       style="opacity:1;fill:#fafdf8;fill-opacity:1;fill-rule:nonzero;stroke:none;stroke-width:2.5999999;stroke-linecap:butt;stroke-linejoin:round;stroke-miterlimit:4;stroke-dasharray:none;stroke-dashoffset:0;stroke-opacity:1"
       id="ellipse4208"
       transform="matrix(0.7834939,-0.62139948,0.62139948,0.7834939,0,0)"
       ry="1.519909"
       rx="2.8456616"
       cy="277.13412"
       cx="-269.20929" />
    <path
       inkscape:connector-curvature="0"
       id="path4248"
       d="m -107.60792,377.12725 c 4.87785,5.57468 6.68962,11.8462 6.41089,21.18379 -0.27874,9.33759 -2.22988,19.65076 -2.22988,19.65076"
       style="opacity:1;fill:none;fill-rule:evenodd;stroke:#000000;stroke-width:1px;stroke-linecap:butt;stroke-linejoin:miter;stroke-opacity:1" />
    <path
       inkscape:connector-curvature="0"
       id="rBrow"
       d="m -141.61348,380.19332 c 9.75569,-7.80455 23.32263,-8.22083 38.55916,4.39098"
       style="opacity:1;fill:none;fill-rule:evenodd;stroke:#000000;stroke-width:1px;stroke-linecap:butt;stroke-linejoin:miter;stroke-opacity:1">
       <animate
         attributeName="d"
         from="m -141.61348,380.19332 c 9.75569,-7.80455 23.32263,-8.22083 38.55916,4.39098"
         to="m -141.39984,375.92046 c 9.75569,-7.80455 23.32263,-8.22083 38.55916,4.39098"
         begin="svggroup.end"
         dur="60s"
         repeatCount="1"
         fill="freeze" />
       <animate
         attributeName="d"
         from="m -141.39984,375.92046 c 9.75569,-7.80455 23.32263,-8.22083 38.55916,4.39098"
         to="m -141.61348,380.19332 c 9.75569,-7.80455 23.32263,-8.22083 38.55916,4.39098"
         begin="rLidOpen.end+3s"
         dur="0.2s"
         repeatCount="1"
         fill="freeze" />
    </path>
    <path
       inkscape:connector-curvature="0"
       id="rBag1"
       d="m -138.1293,401.51648 c 13.79734,2.78735 25.3648,0.55747 31.63632,-5.99278"
       style="opacity:1;fill:none;fill-rule:evenodd;stroke:#000000;stroke-width:1px;stroke-linecap:butt;stroke-linejoin:miter;stroke-opacity:1">
       <animate
         attributeName="d"
         from="m -138.1293,401.51648 c 13.79734,2.78735 25.3648,0.55747 31.63632,-5.99278"
         to="m -138.55659,403.86655 c 13.79734,2.78735 25.3648,0.55747 31.63632,-5.99278"
         begin="svggroup.end"
         dur="60s"
         repeatCount="1"
         fill="freeze" />
       <animate
         attributeName="d"
         from="m -138.55659,403.86655 c 13.79734,2.78735 25.3648,0.55747 31.63632,-5.99278"
         to="m -138.1293,401.51648 c 13.79734,2.78735 25.3648,0.55747 31.63632,-5.99278"
         begin="rLidOpen.end+3s"
         dur="0.2s"
         repeatCount="1"
         fill="freeze" />
    </path>
    <path
       inkscape:connector-curvature="0"
       id="path4254"
       d="m -70.81502,378.10282 c -10.73126,8.36202 -10.45252,17.14215 -10.87063,24.1105"
       style="opacity:1;fill:none;fill-rule:evenodd;stroke:#000000;stroke-width:1px;stroke-linecap:butt;stroke-linejoin:miter;stroke-opacity:1" />
    <path
       inkscape:connector-curvature="0"
       id="lBrow"
       d="m -61.89552,376.70915 c 11.4281,-6.82899 30.66075,-5.43532 44.31872,1.95114"
       style="opacity:1;fill:none;fill-rule:evenodd;stroke:#000000;stroke-width:1px;stroke-linecap:butt;stroke-linejoin:miter;stroke-opacity:1">
       <animate
         attributeName="d"
         from="m -61.89552,376.70915 c 11.4281,-6.82899 30.66075,-5.43532 44.31872,1.95114"
         to="m -61.89552,369.87258 c 11.4281,-6.82899 30.66075,-5.43532 44.31872,1.95114"
         begin="svggroup.end"
         dur="60s"
         repeatCount="1"
         fill="freeze" />
       <animate
         attributeName="d"
         from="m -61.89552,369.87258 c 11.4281,-6.82899 30.66075,-5.43532 44.31872,1.95114"
         to="m -61.89552,376.70915 c 11.4281,-6.82899 30.66075,-5.43532 44.31872,1.95114"
         begin="rLidOpen.end+3s"
         dur="0.2s"
         repeatCount="1"
         fill="freeze" />
    </path>
    <path
       inkscape:connector-curvature="0"
       id="lBag1"
       d="m -53.81223,403.18889 c 15.74847,1.11494 22.85619,-1.2543 26.201,-2.78734"
       style="opacity:1;fill:none;fill-rule:evenodd;stroke:#000000;stroke-width:1px;stroke-linecap:butt;stroke-linejoin:miter;stroke-opacity:1">
       <animate
         attributeName="d"
         from="m -53.81223,403.18889 c 15.74847,1.11494 22.85619,-1.2543 26.201,-2.78734"
         to="m -53.81223,404.47075 c 15.74847,1.11494 22.85619,-1.2543 26.201,-2.78734"
         begin="svggroup.end"
         dur="60s"
         repeatCount="1"
         fill="freeze" />
       <animate
         attributeName="d"
         from="m -53.81223,404.47075 c 15.74847,1.11494 22.85619,-1.2543 26.201,-2.78734"
         to="m -53.81223,403.18889 c 15.74847,1.11494 22.85619,-1.2543 26.201,-2.78734"
         begin="rLidOpen.end+3s"
         dur="0.2s"
         repeatCount="1"
         fill="freeze" />
    </path>
    <path
       inkscape:connector-curvature="0"
       id="path4260"
       d="m -111.78893,446.81078 c -2.50861,4.32038 -0.27873,7.80455 1.11494,8.91949 1.39367,1.11493 4.45974,1.53304 6.82898,2.64797 2.36924,1.11494 3.06608,4.59912 5.43532,4.73848 2.36924,0.13937 5.99278,1.11494 9.33759,0 3.34481,-1.11493 7.52582,-4.32038 10.5919,-5.57468 3.06607,-1.2543 7.38645,0.55747 11.14936,-2.50861 3.76291,-3.06607 -2.0905,-13.5186 -2.0905,-13.5186"
       style="opacity:1;fill:none;fill-rule:evenodd;stroke:#000000;stroke-width:1px;stroke-linecap:butt;stroke-linejoin:miter;stroke-opacity:1" />
    <path
       inkscape:connector-curvature="0"
       id="path4262"
       d="m -88.09653,506.59924 c 4.04164,-1.88145 17.28152,0.20905 17.28152,0.20905"
       style="opacity:1;fill:none;fill-rule:evenodd;stroke:#000000;stroke-width:1px;stroke-linecap:butt;stroke-linejoin:miter;stroke-opacity:1" />
    <path
       inkscape:connector-curvature="0"
       id="path4264"
       d="m -100.63956,525.55316 c 6.61993,7.10772 12.12493,8.43171 21.32315,8.08329 9.19823,-0.34842 19.51139,-3.55386 22.64715,-16.79373"
       style="opacity:1;fill:none;fill-rule:evenodd;stroke:#000000;stroke-width:1px;stroke-linecap:butt;stroke-linejoin:miter;stroke-opacity:1" />
    <path
       inkscape:connector-curvature="0"
       id="path4277"
       d="m -113.62128,481.51642 c 3.84334,-3.05497 8.08088,-1.8724 11.43149,-2.46368 3.35061,-0.59129 5.02592,-1.08402 8.96782,-1.37967 3.94189,-0.29564 1.37966,1.8724 4.33608,1.97095 2.95642,0.0985 1.67531,-1.6753 5.02592,-1.6753 3.35061,0 5.81429,2.66078 11.2344,3.25206 5.42011,0.59128 16.26032,-0.29564 16.26032,-0.29564 0,0 -10.24893,3.15351 -14.48647,6.99686 -4.23754,3.84335 -11.82568,7.6867 -20.10366,7.58815 -8.27799,-0.0985 -9.46055,-4.04044 -11.33295,-6.40558 -1.87241,-2.36514 -10.74167,-4.23754 -11.33295,-7.58815 z"
       style="opacity:1;fill:#fe250f;fill-opacity:1;fill-rule:evenodd;stroke:#000000;stroke-width:1px;stroke-linecap:butt;stroke-linejoin:miter;stroke-opacity:1" />
    <path
       sodipodi:nodetypes="csc"
       inkscape:connector-curvature="0"
       id="path4279"
       d="m -113.62128,481.51642 c 10.54457,0.49274 13.99015,2.78186 21.97606,2.95642 18.03417,0.3942 35.27997,-3.5477 35.27997,-3.5477"
       style="opacity:1;fill:none;fill-rule:evenodd;stroke:#000000;stroke-width:1px;stroke-linecap:butt;stroke-linejoin:miter;stroke-opacity:1" />
    <path
       sodipodi:nodetypes="ccccsc"
       inkscape:connector-curvature="0"
       id="path4290"
       d="m -91.74376,227.06706 c -33.90031,16.55596 -54.61564,44.57831 -59.12844,53.60978 -0.5647,9.76456 0.48423,18.00564 3.4053,17.28992 12.82178,-26.47974 46.82733,-24.80733 46.82733,-24.80733 0,0 9.52487,-30.98993 9.7557,-32.89063 1.03995,-8.56336 -0.85989,-13.20174 -0.85989,-13.20174 z"
       style="opacity:1;fill:#0c0200;fill-opacity:1;fill-rule:evenodd;stroke:#000000;stroke-width:1px;stroke-linecap:butt;stroke-linejoin:miter;stroke-opacity:1" />
    <path
       style="opacity:0;fill:none;fill-rule:evenodd;stroke:#000000;stroke-width:0.99999994px;stroke-linecap:butt;stroke-linejoin:miter;stroke-opacity:1"
       d="m -130.49281,406.89003 c 5.02303,1.87998 9.17644,0.57894 17.1086,-2.14721"
       id="rBag2"
       inkscape:connector-curvature="0"
       sodipodi:nodetypes="cc">
       <animate
         attributeName="opacity"
         from="0"
         to="0.7"
         begin="svggroup.end"
         dur="60s"
         repeatCount="1"
         fill="freeze" />
       <animate
         attributeName="opacity"
         from="0.7"
         to="0"
         begin="rLidOpen.end+3s"
         dur="1s"
         repeatCount="1"
         fill="freeze" />
    </path>
    <path
       style="opacity:0;fill:none;fill-rule:evenodd;stroke:#000000;stroke-width:0.99999994px;stroke-linecap:butt;stroke-linejoin:miter;stroke-opacity:1"
       d="m -47.933962,406.40484 c 5.70726,0.90129 10.25126,0.66848 13.59607,-0.86456"
       id="lBag2"
       inkscape:connector-curvature="0"
       sodipodi:nodetypes="cc">
       <animate
         attributeName="opacity"
         from="0"
         to="0.7"
         begin="svggroup.end"
         dur="60s"
         repeatCount="1"
         fill="freeze" />
       <animate
         attributeName="opacity"
         from="0.7"
         to="0"
         begin="rLidOpen.end+3s"
         dur="1s"
         repeatCount="1"
         fill="freeze" />
    </path>
    <path
       inkscape:connector-curvature="0"
       id="veins"
       style="opacity:0;fill:none;stroke:#ff1010;stroke-width:0.5;stroke-linecap:butt;stroke-linejoin:miter;stroke-miterlimit:4;stroke-dasharray:none;stroke-opacity:1"
       d="m -33.134986,386.5054 c 3.45858,-0.62883 6.44554,1.04805 6.44554,1.04805 m -29.24071,-3.14416 c -3.7206,0.36684 -4.66385,2.14851 -4.66385,2.14851 m 10.79496,-1.04805 c -2.1485,-3.19657 -2.46292,-2.46293 -3.19656,-0.89085 -0.73364,1.57208 -1.41488,1.36247 -3.24897,-0.52403 -1.8341,-1.88649 -3.45857,-2.46292 -3.45857,-2.46292 m 9.7469,6.28833 c -4.13982,-1.10046 -4.61144,0.262 -5.08308,1.41486 -0.47159,1.15287 -3.51097,1.31007 -3.51097,1.31007 m 25.26557,-1.44478 c 1.38875,1.52915 3.70704,2.14931 3.70704,2.14931 m -4.49546,-2.70578 c 2.03873,1.73356 2.227,-0.23445 3.24736,-0.23918 1.02034,-0.004 2.0727,1.12454 2.0727,1.12454 m -7.24861,3.84403 c 1.75219,0.54057 2.93131,-1.30487 3.80404,-0.67331 0.87275,0.63161 1.34782,1.35872 1.90228,1.16547 m -6.02461,-1.31702 c 0.81171,2.62914 1.60012,1.65865 2.84548,1.84023 1.24536,0.18157 1.05259,2.63138 1.05259,2.63138 m -8.90132,0.2151 c 2.04516,-0.49119 1.15183,-1.95908 2.55397,-1.87524 1.40214,0.0838 1.77972,2.15632 1.28676,3.35627 -0.49293,1.19996 0.52299,1.67702 0.52299,1.67702 m -5.75942,-5.46667 c 1.77304,2.87895 1.73211,2.70853 0.50514,3.60409 -1.22699,0.8956 1.29548,0.8906 1.58648,1.60185 0.29101,0.71124 -0.38159,1.41356 -0.38159,1.41356 m -5.35086,-8.26873 c -2.57654,2.78197 -0.45393,3.1134 -0.0878,4.88816 0.36625,1.77474 -1.30171,2.8363 -1.30171,2.8363 m -4.40287,-6.5736 c 0.48675,2.52693 -0.47656,4.02012 -0.47656,4.02012 m 4.24165,-6.60685 c -3.32401,3.92288 -4.72417,2.09602 -6.15807,2.38033 -1.43386,0.28442 -2.48351,1.9184 -2.48351,1.9184 m 24.20806,-15.71352 c 2.25332,1.72929 1.46729,1.15285 0.73365,2.56773 -0.73365,1.41487 1.51967,2.1485 2.20091,1.62448 0.68123,-0.52406 1.81621,-0.31438 1.81621,-0.31438 m -5.68334,-3.55488 c 0.99323,-1.8112 2.55167,-2.62028 2.55167,-2.62028 m -3.18834,3.34547 c 1.5775,-2.16174 2.22018,-0.29211 3.21342,-0.5258 0.99323,-0.23369 1.39348,-0.71521 1.39348,-0.71521 m -7.58661,-2.90721 c 1.5775,-0.93481 3.155,0.58423 3.8561,-0.23368 0.70111,-0.81796 0.22675,-1.34849 0.81102,-1.29007 m -4.78396,2.40014 c 0.17524,-2.746 1.1685,-1.98647 2.33702,-2.45388 1.16852,-0.46738 0.40899,-2.80443 0.40899,-2.80443 m -8.70541,1.86962 c 2.10333,0 1.5775,1.63592 2.92129,1.22695 1.34379,-0.40897 1.22693,-2.51232 0.46736,-3.56398 -0.75953,-1.05166 0.11688,-1.75277 0.11688,-1.75277 m -4.32348,6.66053 c 1.05167,-3.21341 1.05167,-3.03814 -0.35049,-3.62239 -1.40222,-0.58429 1.05166,-1.16852 1.1685,-1.92805 0.11688,-0.75954 -0.70111,-1.28537 -0.70111,-1.28537 m -3.27193,9.2897 c -3.15498,-2.10333 -1.16851,-2.92129 -1.22693,-4.73249 -0.0583,-1.8112 -1.92805,-2.45388 -1.92805,-2.45388 m -2.746,7.42006 c -0.11685,-2.57073 -1.40223,-3.79767 -1.40223,-3.79767 m 5.6673,5.4336 c -4.14823,-3.03814 -5.08303,-0.93481 -6.54368,-0.87639 -1.46064,0.0583 -2.86285,-1.28537 -2.86285,-1.28537 m -56.783284,7.68594 c 3.16172,-0.57486 5.89229,0.95809 5.89229,0.95809 m -26.73084,-2.87428 c -3.40124,0.33535 -4.26353,1.96409 -4.26353,1.96409 m 9.86838,-0.95809 c -1.96409,-2.92219 -2.25152,-2.25153 -2.92219,-0.81438 -0.67066,1.43714 -1.29343,1.24552 -2.97009,-0.47905 -1.67667,-1.72457 -3.16171,-2.25152 -3.16171,-2.25152 m 8.91028,5.74857 c -3.78448,-1.006 -4.21562,0.23951 -4.64677,1.29342 -0.43112,1.05391 -3.20961,1.19762 -3.20961,1.19762 m 23.09691,-1.32077 c 1.26955,1.3979 3.38885,1.96483 3.38885,1.96483 m -4.1096,-2.47353 c 1.86374,1.58476 2.03585,-0.21433 2.96863,-0.21865 0.93276,-0.004 1.89479,1.02801 1.89479,1.02801 m -6.62643,3.51408 c 1.60179,0.49416 2.6797,-1.19287 3.47752,-0.61552 0.79784,0.5774 1.23213,1.2421 1.739,1.06544 m -5.50749,-1.20398 c 0.74204,2.40347 1.46277,1.51628 2.60124,1.68228 1.13846,0.16598 0.96224,2.40551 0.96224,2.40551 m -8.13728,0.19664 c 1.86962,-0.44903 1.05296,-1.79092 2.33475,-1.71428 1.28179,0.0766 1.62696,1.97123 1.17632,3.06819 -0.45062,1.09696 0.47807,1.53307 0.47807,1.53307 m -5.26504,-4.99744 c 1.62085,2.63184 1.58343,2.47604 0.46176,3.29473 -1.12167,0.81873 1.18428,0.81416 1.4503,1.46436 0.26603,0.65019 -0.3488,1.29223 -0.3488,1.29223 m -4.89157,-7.55899 c -2.35539,2.54318 -0.415,2.84616 -0.0803,4.46859 0.33484,1.6224 -1.18995,2.59284 -1.18995,2.59284 m -4.02495,-6.00935 c 0.44497,2.31003 -0.43565,3.67505 -0.43565,3.67505 m 3.87756,-6.03975 c -3.03869,3.58616 -4.31867,1.91611 -5.62949,2.17601 -1.31079,0.26001 -2.27034,1.75374 -2.27034,1.75374 m 22.13017,-14.36476 c 2.05991,1.58086 1.34134,1.0539 0.67067,2.34733 -0.67067,1.29343 1.38924,1.96409 2.012,1.48505 0.62276,-0.47908 2.25152,-0.2874 2.25152,-0.2874 m -5.78672,-3.24975 c 0.90798,-1.65573 2.83628,-2.70192 2.83628,-2.70192 m -3.4183,3.36487 c 1.4421,-1.97619 2.02961,-0.26704 2.9376,-0.48067 0.90798,-0.21363 1.60232,-1.44209 1.60232,-1.44209 m -7.26386,-1.8694 c 1.44209,-0.85457 2.88418,0.53408 3.52511,-0.21363 0.64093,-0.74775 0.90798,-1.4955 1.44209,-1.44209 m -5.07402,2.45688 c 0.16022,-2.5103 1.06821,-1.81596 2.13643,-2.24325 1.06822,-0.42726 0.37386,-2.56371 0.37386,-2.56371 m -7.95819,1.70914 c 1.92279,0 1.44209,1.4955 2.67054,1.12163 1.22845,-0.37386 1.12162,-2.29667 0.42726,-3.25806 -0.69434,-0.96139 0.10682,-1.60232 0.10682,-1.60232 m -3.95237,6.08882 c 0.9614,-2.93759 0.9614,-2.77736 -0.32044,-3.31146 -1.28186,-0.53414 0.96139,-1.06822 1.06821,-1.76256 0.10682,-0.69434 -0.64093,-1.17504 -0.64093,-1.17504 m -2.99102,8.49232 c -2.88418,-1.92279 -1.06821,-2.67054 -1.12162,-4.32628 -0.0533,-1.65573 -1.76256,-2.24325 -1.76256,-2.24325 m -2.5103,6.78316 c -0.10681,-2.35007 -1.28186,-3.47169 -1.28186,-3.47169 m 5.18084,4.9672 c -3.79216,-2.77736 -4.64673,-0.85457 -5.982,-0.80116 -1.33527,0.0533 -2.61712,-1.17504 -2.61712,-1.17504">
       <animate
         attributeName="opacity"
         from="0"
         to="1"
         begin="svggroup.end"
         dur="60s"
         repeatCount="1"
         fill="freeze" />
       <animate
         attributeName="opacity"
         from="1"
         to="0"
         begin="rLidOpen.end+3s"
         dur="0.1s"
         repeatCount="1"
         fill="freeze" />
    </path>
  </g>
</svg>
